<svg xmlns="http://www.w3.org/2000/svg" width="300" height="472" fill="none" viewBox="0 0 300 472">
  <path fill="#fff" fill-rule="evenodd" d="M146.159 313.191a7.606 7.606 0 0 0 6.78.009l124.579-61.826a7.607 7.607 0 0 0-6.763-13.628l-121.186 60.143-116.1-58.003V104.7L149.74 34.63l120.702 65.961a7.606 7.606 0 0 0 10.322-3.027 7.605 7.605 0 0 0-3.027-10.322L153.203 19.186a7.607 7.607 0 0 0-7.574.16L21.936 93.889a7.607 7.607 0 0 0-3.68 6.515v144.185a7.607 7.607 0 0 0 4.207 6.805l123.696 61.797Z" clip-rule="evenodd"/>
  <path fill="#fff" fill-rule="evenodd" d="M143.009 271.088a6.085 6.085 0 0 0 5.5-.09l82.513-43.518 41.552 21.338a6.086 6.086 0 0 0 5.56-10.826l-34.246-17.586 34.424-19.148a6.085 6.085 0 0 0-.061-10.668l-37.055-20.067 36.984-19.396a6.087 6.087 0 0 0 .041-10.757l-36.818-19.664 36.86-20.064a6.084 6.084 0 0 0 2.435-8.254 6.084 6.084 0 0 0-8.253-2.435l-43.891 23.891-73.382-39.193a6.084 6.084 0 0 0-5.934.112L65.999 123.35a6.085 6.085 0 0 0 .405 10.727l35.96 17.501-36.379 21.363a6.086 6.086 0 0 0 .406 10.713l36.561 17.901-36.95 21.552a6.083 6.083 0 0 0 .404 10.728l76.603 37.252Zm-27.426-76.899-33.671-16.486 70.515-41.409 110.28 59.718-31.823 17.701-75.777-39.3a6.087 6.087 0 0 0-5.867.145l-33.657 19.631Zm102.272 26.476-65.377-33.906-70.498 41.118 63.579 30.918 72.296-38.13Zm-102.888-76.487L81.972 128.12l70.465-41.133 109.908 58.702-34.041 17.853-73.101-39.585a6.084 6.084 0 0 0-5.979.104l-34.257 20.117Z" clip-rule="evenodd"/>
  <path fill="#fff" d="M168.065 452.386v-49.909h33.964v9.653h-23.095v10.225h19.806v9.581h-19.806v10.797h23.095v9.653h-33.964Zm-37.921 0h-10.868v-49.909h23.667c2.289 0 4.362.381 6.221 1.144 1.859.763 3.432 1.859 4.719 3.289 1.335 1.382 2.36 3.051 3.075 5.005.715 1.955 1.073 4.124 1.073 6.507 0 3.385-.763 6.34-2.288 8.866-1.478 2.527-3.742 4.362-6.793 5.506l9.796 19.592h-12.084l-8.724-18.305h-7.794v18.305Zm11.441-27.457c1.621 0 2.884-.405 3.79-1.216.953-.858 1.43-2.097 1.43-3.718v-3.146c0-1.621-.477-2.836-1.43-3.647-.906-.858-2.169-1.287-3.79-1.287h-11.441v13.014h11.441Zm-53.94 28.315c-3.29 0-6.293-.548-9.01-1.644-2.717-1.097-5.029-2.718-6.936-4.863-1.906-2.192-3.384-4.886-4.433-8.08-1.049-3.241-1.573-6.983-1.573-11.226 0-4.242.525-7.96 1.573-11.154 1.049-3.241 2.527-5.935 4.433-8.08a17.976 17.976 0 0 1 6.936-4.934c2.717-1.096 5.72-1.644 9.01-1.644 3.289 0 6.292.548 9.009 1.644a17.979 17.979 0 0 1 6.936 4.934c1.907 2.145 3.384 4.839 4.433 8.08 1.049 3.194 1.573 6.912 1.573 11.154 0 4.243-.524 7.985-1.573 11.226-1.049 3.194-2.526 5.888-4.433 8.08-1.907 2.145-4.219 3.766-6.936 4.863-2.717 1.096-5.72 1.644-9.01 1.644Zm0-9.653c3.289 0 5.839-1.072 7.65-3.217 1.86-2.146 2.789-5.22 2.789-9.224v-7.437c0-4.004-.93-7.078-2.789-9.224-1.811-2.145-4.361-3.217-7.65-3.217-3.29 0-5.864 1.072-7.723 3.217-1.811 2.146-2.717 5.22-2.717 9.224v7.437c0 4.004.906 7.078 2.717 9.224 1.86 2.145 4.434 3.217 7.723 3.217Zm-46.133 9.653c-3.384 0-6.435-.524-9.152-1.573-2.717-1.096-5.03-2.693-6.936-4.791-1.907-2.145-3.385-4.79-4.433-7.937-1.049-3.193-1.573-6.911-1.573-11.154 0-4.195.524-7.913 1.573-11.154 1.048-3.29 2.526-6.031 4.433-8.223a18.313 18.313 0 0 1 6.936-5.077c2.717-1.144 5.768-1.716 9.152-1.716 4.624 0 8.438.953 11.44 2.86 3.004 1.859 5.411 4.815 7.222 8.866l-9.367 4.863c-.667-2.098-1.716-3.766-3.146-5.006-1.382-1.287-3.432-1.93-6.149-1.93-3.194 0-5.768 1.049-7.722 3.146-1.907 2.05-2.86 5.053-2.86 9.009v8.009c0 3.956.953 6.983 2.86 9.081 1.954 2.049 4.528 3.074 7.722 3.074 2.67 0 4.79-.715 6.364-2.145a13.375 13.375 0 0 0 3.575-5.291l8.866 5.148c-1.859 3.814-4.314 6.769-7.364 8.866-3.004 2.05-6.817 3.075-11.44 3.075Zm225.557-114.136v40.256h-10.868v-40.256h-13.515v-9.653h37.897v9.653h-13.514Zm-53.417 40.256v-49.909h10.869v40.256h19.02v9.653h-29.889Zm-18.202 0-3.575-11.869h-16.661l-3.575 11.869h-11.011l16.446-49.909h13.442l16.231 49.909H195.45Zm-11.798-40.042h-.358l-5.505 18.949h11.44l-5.577-18.949Zm-65.593-9.867h24.239c4.148 0 7.365 1.168 9.653 3.504 2.336 2.335 3.504 5.434 3.504 9.295 0 1.907-.262 3.528-.787 4.862-.476 1.335-1.144 2.431-2.002 3.289a7.678 7.678 0 0 1-2.931 1.931c-1.097.381-2.288.596-3.575.644v.429c1.191 0 2.431.214 3.718.643 1.334.429 2.55 1.12 3.646 2.074 1.097.905 2.003 2.097 2.718 3.575.762 1.478 1.144 3.289 1.144 5.434 0 1.954-.334 3.814-1.001 5.577-.62 1.716-1.502 3.218-2.646 4.505a12.969 12.969 0 0 1-4.076 3.075c-1.573.715-3.289 1.072-5.148 1.072h-26.456v-49.909Zm10.868 40.757h12.513c1.43 0 2.551-.382 3.361-1.144.858-.811 1.287-1.931 1.287-3.361v-2.431c0-1.43-.429-2.526-1.287-3.289-.81-.811-1.931-1.216-3.361-1.216h-12.513v11.441Zm0-20.307h10.797c1.43 0 2.551-.405 3.361-1.216.81-.81 1.216-1.93 1.216-3.36v-2.145c0-1.43-.406-2.551-1.216-3.361-.81-.81-1.931-1.216-3.361-1.216h-10.797v11.298Zm-41.891 30.317c-3.29 0-6.292-.548-9.01-1.644-2.716-1.097-5.028-2.717-6.935-4.863-1.907-2.192-3.385-4.886-4.433-8.079-1.049-3.242-1.573-6.984-1.573-11.226 0-4.243.524-7.961 1.573-11.155 1.048-3.241 2.526-5.935 4.433-8.08a17.974 17.974 0 0 1 6.936-4.933c2.717-1.097 5.72-1.645 9.01-1.645 3.288 0 6.291.548 9.008 1.645a17.967 17.967 0 0 1 6.936 4.933c1.907 2.145 3.385 4.839 4.433 8.08 1.049 3.194 1.574 6.912 1.574 11.155 0 4.242-.525 7.984-1.574 11.226-1.048 3.193-2.526 5.887-4.433 8.079-1.906 2.146-4.218 3.766-6.935 4.863-2.718 1.096-5.72 1.644-9.01 1.644Zm0-9.653c3.29 0 5.84-1.072 7.65-3.217 1.86-2.145 2.79-5.22 2.79-9.224v-7.437c0-4.004-.93-7.078-2.79-9.223-1.81-2.146-4.36-3.218-7.65-3.218s-5.863 1.072-7.722 3.218c-1.812 2.145-2.717 5.219-2.717 9.223v7.437c0 4.004.905 7.079 2.717 9.224 1.859 2.145 4.433 3.217 7.722 3.217Zm-45.524 9.653c-3.384 0-6.435-.524-9.152-1.573-2.717-1.096-5.03-2.693-6.936-4.791-1.907-2.145-3.385-4.79-4.433-7.936-1.049-3.194-1.573-6.912-1.573-11.155 0-4.195.524-7.913 1.573-11.154 1.048-3.29 2.526-6.03 4.433-8.223a18.313 18.313 0 0 1 6.936-5.077c2.717-1.144 5.768-1.716 9.152-1.716 4.624 0 8.438.953 11.44 2.86 3.004 1.859 5.411 4.815 7.222 8.867l-9.367 4.862c-.667-2.098-1.716-3.766-3.146-5.006-1.382-1.287-3.432-1.93-6.149-1.93-3.194 0-5.768 1.049-7.722 3.146-1.907 2.05-2.86 5.053-2.86 9.009v8.009c0 3.956.953 6.983 2.86 9.081 1.954 2.049 4.528 3.074 7.722 3.074 2.67 0 4.79-.715 6.364-2.145a13.375 13.375 0 0 0 3.575-5.291l8.866 5.148c-1.859 3.814-4.314 6.769-7.364 8.867-3.004 2.049-6.817 3.074-11.44 3.074Z"/>
</svg>
