<svg xmlns="http://www.w3.org/2000/svg" width="320" height="320" fill="none" viewBox="0 0 320 320">
  <rect width="320" height="320" fill="#fff" rx="30"/>
  <path fill="#000" fill-rule="evenodd" d="M156.531 292.793a6.866 6.866 0 0 0 6.123.008l112.486-55.825a6.868 6.868 0 1 0-6.106-12.304l-109.423 54.305-104.832-52.373V104.54l104.986-63.27 108.987 59.559a6.867 6.867 0 1 0 6.587-12.053l-112.448-61.45a6.867 6.867 0 0 0-6.838.144L44.366 94.778a6.868 6.868 0 0 0-3.323 5.882v130.19a6.869 6.869 0 0 0 3.799 6.145l111.689 55.798Z" clip-rule="evenodd"/>
  <path fill="#000" fill-rule="evenodd" d="M153.687 254.777a5.494 5.494 0 0 0 4.966-.081l74.504-39.294 37.519 19.267a5.496 5.496 0 0 0 5.02-9.776l-30.921-15.879 31.082-17.288a5.495 5.495 0 0 0-.055-9.634l-33.459-18.118 33.395-17.514a5.494 5.494 0 0 0 .036-9.712l-33.244-17.756 33.283-18.116a5.496 5.496 0 0 0-5.254-9.652l-39.63 21.572-66.259-35.389a5.496 5.496 0 0 0-5.359.101L84.152 121.38a5.495 5.495 0 0 0 .366 9.686l32.469 15.802-32.847 19.29a5.494 5.494 0 0 0 .366 9.673l33.012 16.163-33.364 19.46a5.494 5.494 0 0 0 .365 9.687l69.168 33.636Zm-24.764-69.435L98.52 170.457l63.671-37.39 99.575 53.921-28.734 15.983-68.421-35.485a5.494 5.494 0 0 0-5.298.131l-30.39 17.725Zm92.345 23.907-59.031-30.615-63.655 37.127 57.407 27.916 65.279-34.428Zm-92.901-69.063-29.792-14.5 63.625-37.14 99.24 53.004-30.737 16.12-66.005-35.742a5.494 5.494 0 0 0-5.399.093l-30.932 18.165Z" clip-rule="evenodd"/>
</svg>
